<?xml version="1.0" encoding="UTF-8"?>
<svg width="279px" height="57px" viewBox="0 0 279 57" version="1.1" xmlns="http://www.w3.org/2000/svg" xmlns:xlink="http://www.w3.org/1999/xlink">
    <!-- Generator: Sketch 44.1 (41455) - http://www.bohemiancoding.com/sketch -->
    <title>Group 12</title>
    <desc>Created with Sketch.</desc>
    <defs></defs>
    <g id="Final" stroke="none" stroke-width="1" fill="none" fill-rule="evenodd">
        <g id="Group-12">
            <path d="M94.1442737,18.1217038 C95.5474465,18.1217038 96.6777802,16.9775351 96.6777802,15.5571877 C96.6777802,14.1368404 95.5474465,12.9926717 94.1442737,12.9926717 C92.7411009,12.9926717 91.6107672,14.1368404 91.6107672,15.5571877 C91.6107672,16.9775351 92.7411009,18.1217038 94.1442737,18.1217038 Z M96.1710789,39.5058222 L96.1710789,20.4494953 L92.0784915,20.4494953 L92.0784915,39.5058222 L96.1710789,39.5058222 Z M74.0072393,40.1497868 L74.0072393,28.4730616 L87.2990469,28.4730616 L87.2990469,24.3114606 L74.0072393,24.3114606 L74.0072393,17.361991 L87.5784542,17.361991 L87.5784542,13.20039 L69.3371447,13.20039 L69.3371447,40.1497868 L74.0072393,40.1497868 Z M117.690214,39.5058222 L117.690214,26.0914306 C117.690214,22.1854754 115.663409,19.9760462 111.609799,19.9760462 C108.647545,19.9760462 106.191993,21.5147558 104.944728,23.0140113 L104.944728,20.4494953 L100.85214,20.4494953 L100.85214,39.5058222 L104.944728,39.5058222 L104.944728,26.1703388 C105.919153,24.9078078 107.712096,23.6452768 109.777879,23.6452768 C112.077523,23.6452768 113.597627,24.592175 113.597627,27.5906861 L113.597627,39.5058222 L117.690214,39.5058222 Z M136.35711,39.9792713 C141.580031,39.9792713 144.815124,37.1780307 146.802952,34.0217033 L142.90525,32.0489986 C141.657985,34.2189737 139.124478,35.8760457 136.35711,35.8760457 C131.212143,35.8760457 127.392395,31.8517282 127.392395,26.3676092 C127.392395,20.8045821 131.212143,16.8591728 136.35711,16.8591728 C139.124478,16.8591728 141.657985,18.4767906 142.90525,20.6862198 L146.763975,18.634607 C144.854101,15.4782796 141.580031,12.7559471 136.35711,12.7559471 C128.678636,12.7559471 122.715152,18.2400661 122.715152,26.3676092 C122.715152,34.4556983 128.678636,39.9792713 136.35711,39.9792713 Z M159.992267,39.9792713 C153.989805,39.9792713 150.325965,35.4025965 150.325965,29.9579317 C150.325965,24.4738128 153.989805,19.9760462 159.992267,19.9760462 C165.994728,19.9760462 169.658568,24.4738128 169.658568,29.9579317 C169.658568,35.4025965 165.994728,39.9792713 159.992267,39.9792713 Z M159.992267,36.3100407 C163.500199,36.3100407 165.410073,33.3509837 165.410073,29.9579317 C165.410073,26.6043338 163.500199,23.6452768 159.992267,23.6452768 C156.523312,23.6452768 154.574461,26.6043338 154.574461,29.9579317 C154.574461,33.3509837 156.523312,36.3100407 159.992267,36.3100407 Z M200.744774,39.5058222 L200.744774,25.7363437 C200.744774,21.8698426 198.756945,19.9760462 195.326967,19.9760462 C192.481645,19.9760462 189.987115,21.7514803 188.934736,23.4480063 C188.311103,21.3963935 186.596114,19.9760462 183.789769,19.9760462 C180.905469,19.9760462 178.449917,21.8698426 177.631399,23.0140113 L177.631399,20.4494953 L173.538812,20.4494953 L173.538812,39.5058222 L177.631399,39.5058222 L177.631399,26.1703388 C178.488894,24.9472619 180.164906,23.6452768 181.996826,23.6452768 C184.218516,23.6452768 185.07601,25.0261701 185.07601,27.0777829 L185.07601,39.5058222 L189.168598,39.5058222 L189.168598,26.1703388 C189.987115,24.9078078 191.702104,23.6452768 193.534024,23.6452768 C195.755715,23.6452768 196.652186,25.0261701 196.652186,27.0777829 L196.652186,39.5058222 L200.744774,39.5058222 Z M215.599078,39.9792713 C213.22148,39.9792713 211.116721,38.8745567 209.55764,36.862398 L209.55764,46.7653753 L205.465052,46.7653753 L205.465052,20.4494953 L209.55764,20.4494953 L209.55764,23.0534654 C210.960813,21.159669 213.143526,19.9760462 215.599078,19.9760462 C220.471206,19.9760462 223.940161,23.6847309 223.940161,29.9579317 C223.940161,36.2311325 220.471206,39.9792713 215.599078,39.9792713 Z M214.390791,36.3100407 C217.625883,36.3100407 219.730643,33.6666164 219.730643,29.9579317 C219.730643,26.249247 217.625883,23.6452768 214.390791,23.6452768 C212.480916,23.6452768 210.493088,24.7499914 209.55764,26.1703388 L209.55764,33.7060705 C210.454111,35.1264179 212.480916,36.3100407 214.390791,36.3100407 Z M243.372236,39.5058222 L239.279649,39.5058222 L239.279649,37.4147553 C237.876476,39.0718272 235.654786,39.9792713 233.160256,39.9792713 C230.120049,39.9792713 226.651094,37.8487503 226.651094,33.6666164 C226.651094,29.247758 230.081072,27.4328697 233.160256,27.4328697 C235.73274,27.4328697 237.876476,28.2614057 239.279649,29.8790235 L239.279649,27.0383288 C239.279649,24.8288996 237.447729,23.4874604 234.875245,23.4874604 C232.770486,23.4874604 230.899589,24.2765423 229.301531,25.9336142 L227.586542,23.0534654 C229.769256,20.9229444 232.497647,19.9760462 235.498878,19.9760462 C239.708396,19.9760462 243.372236,21.7514803 243.372236,26.8410583 L243.372236,39.5058222 Z M234.797291,37.1385766 C236.551257,37.1385766 238.305223,36.467857 239.279649,35.165872 L239.279649,32.2462691 C238.305223,30.944284 236.551257,30.2735644 234.797291,30.2735644 C232.497647,30.2735644 230.743681,31.6544577 230.743681,33.7060705 C230.743681,35.7971375 232.497647,37.1385766 234.797291,37.1385766 Z M252.145885,39.5058222 L252.145885,26.5254256 C252.964403,25.1445323 255.264047,23.9609096 257.018013,23.9609096 C257.524714,23.9609096 257.914485,24.0003637 258.265278,24.0792718 L258.265278,19.9760462 C255.848703,19.9760462 253.588035,21.3963935 252.145885,23.2112818 L252.145885,20.4494953 L248.053298,20.4494953 L248.053298,39.5058222 L252.145885,39.5058222 Z M269.689364,39.9792713 C263.998719,39.9792713 259.828178,35.9944079 259.828178,29.9579317 C259.828178,24.4343587 263.803834,19.9760462 269.377548,19.9760462 C275.029216,19.9760462 278.615103,24.3159964 278.615103,30.3130185 L278.615103,31.338825 L264.11565,31.338825 C264.427466,34.1795197 266.532226,36.5862193 270.079135,36.5862193 C271.950032,36.5862193 274.093768,35.8365916 275.457964,34.4556983 L277.328861,37.1780307 C275.418987,38.992919 272.651618,39.9792713 269.689364,39.9792713 Z M274.270473,28.379768 C274.153542,26.1308847 272.633439,23.3690982 268.930621,23.3690982 C265.461666,23.3690982 263.824631,26.0914306 263.668723,28.379768 L274.270473,28.379768 Z" id="FinCompare-Copy-5" fill="#393939"></path>
            <polyline id="Fill-2" fill="#00263F" points="42.2968701 27.1310116 48.1991422 21.1596203 27.7690539 0.487853996 0.0237273145 28.5620961 5.92530581 34.5362948 15.372132 24.9763135 24.8196519 34.5362948 30.7212304 28.5620961 21.2737105 19.0042204 27.7690539 12.4313384 42.2968701 27.1310116"></polyline>
            <polyline id="Fill-3" fill="#00B2FF" points="27.7697475 44.6914501 17.7305438 34.5362948 5.92530581 34.5362948 27.7697475 56.6363382 55.5449011 28.5326182 49.6433226 22.5598231 27.7697475 44.6914501"></polyline>
        </g>
    </g>
</svg>